<?xml version="1.0" encoding="UTF-8"?>
<svg id="Layer_1" data-name="Layer 1" xmlns="http://www.w3.org/2000/svg" viewBox="0 0 1430.81 360">
  <defs>
    <style>
      .cls-1, .cls-2 {
        fill: #1c2a33;
      }

      .cls-2 {
        fill-rule: evenodd;
      }
    </style>
  </defs>
  <polygon class="cls-1" points="256.73 180.73 268.05 180.73 286.05 180.73 275.2 199.53 283.44 199.53 294.29 180.73 294.29 180.73 296.25 177.53 294.33 174.41 294.29 174.41 287 161.78 283.77 156.18 275.53 156.18 281.77 167 286.05 174.41 274.36 174.41 256.76 174.41 239.61 174.41 239.61 180.73 256.73 180.73"/>
  <g>
    <polygon class="cls-1" points="126.71 101.15 110.45 72.81 110.45 72.81 111.03 72.81 161.3 72.81 223.38 72.81 223.4 72.79 206.99 101.39 214.2 101.41 229.04 75.65 247.29 107.28 253.78 118.52 262.03 118.52 253.17 103.18 232.71 67.74 232.69 67.77 231.46 65.72 99.07 65.67 119.42 101.13 126.71 101.15"/>
    <polygon class="cls-1" points="147.33 218.06 168.75 180.73 208.75 180.73 208.75 174.41 172.37 174.41 168.75 174.41 147.31 137.05 140.03 137.05 163.28 177.57 140.05 218.05 147.33 218.06"/>
    <polygon class="cls-1" points="246.56 249.13 229.04 279.47 229.02 279.47 214.49 254.18 207.24 254.18 223.39 282.32 223.38 282.32 166.45 282.32 110.45 282.32 126.6 254.18 119.32 254.18 99.08 289.46 231.11 289.46 252.38 253.32 261.78 237.04 253.54 237.04 246.56 249.13"/>
  </g>
  <polygon class="cls-2" points="119.32 254.18 214.5 254.18 193.75 218.09 139.66 218.06 114.67 177.57 139.88 137.05 193.67 137.05 214.2 101.41 119.42 101.13 75.06 174.41 42.09 174.41 99.11 75.66 95 68.49 64.33 121.62 33.85 174.41 33.84 174.41 32.18 177.43 33.87 180.73 33.85 180.73 64.33 233.51 95 286.64 99.11 279.48 42.09 180.73 75.06 180.73 119.32 254.18"/>
  <path class="cls-1" d="M312.13,127.42c-3.24-2.09-7.07-3.31-11.17-3.31h-65.9c-11.48,0-20.72,9.24-20.72,20.72v65.9c0,8.61,5.2,15.96,12.64,19.1,2.48,1.05,5.21,1.62,8.08,1.62h65.9c11.33,0,20.72-9.24,20.72-20.72v-65.89c0-7.33-3.84-13.73-9.55-17.41ZM234.02,144.83c0-.6.45-1.04,1.04-1.04h65.9c.08,0,.15.03.22.05.14.05.28.12.39.24.17.19.28.45.28.75v65.89h0c0,.6-.45,1.04-.89,1.04h0s0,0,0,0h0s-65.9,0-65.9,0c-.6,0-1.04-.45-1.04-1.04v-65.9Z"/>
  <path class="cls-1" d="M445.28,173.9c0,11.33-9.39,20.72-20.87,20.72h-5.81l26.69,31.75v5.07h-21.47l-31.01-36.82h-35.18v36.82h-19.68v-107.19h86.47c11.48,0,20.87,9.39,20.87,20.72v28.92ZM424.41,174.95c.6,0,1.04-.45,1.04-1.04v-28.92c0-.6-.45-1.04-1.04-1.04h-65.75c-.6,0-1.04.45-1.04,1.04v28.92c0,.6.45,1.04,1.04,1.04h65.75Z"/>
  <path class="cls-1" d="M548.6,124.11h19.83v107.34h-21.47l-66.19-78.72v78.72h-19.68v-107.34h21.47l66.04,78.72v-78.72Z"/>
  <path class="cls-1" d="M684.13,143.79h-78.87v24.15h63.51v19.68h-63.51v24.15h78.87v19.68h-98.69v-107.34h98.69v19.68Z"/>
  <path class="cls-1" d="M806.53,173.9c0,11.33-9.39,20.72-20.87,20.72h-5.81l26.69,31.75v5.07h-21.47l-31.01-36.82h-35.18v36.82h-19.68v-107.19h86.47c11.48,0,20.87,9.39,20.87,20.72v28.92ZM785.66,174.95c.6,0,1.04-.45,1.04-1.04v-28.92c0-.6-.45-1.04-1.04-1.04h-65.75c-.6,0-1.04.45-1.04,1.04v28.92c0,.6.45,1.04,1.04,1.04h65.75Z"/>
  <path class="cls-1" d="M928.94,153.03h-19.83v-8.2c0-.6-.45-1.04-.89-1.04h-65.9c-.6,0-1.04.45-1.04,1.04v22.07c0,.59.45,1.04,1.04,1.04h65.9c11.33,0,20.72,9.24,20.72,20.72v22.06c0,11.48-9.39,20.72-20.72,20.72h-65.9c-11.48,0-20.72-9.24-20.72-20.72v-8.2h19.68v8.2c0,.6.45,1.04,1.04,1.04h65.9c.45,0,.89-.45.89-1.04v-22.06c0-.6-.45-1.04-.89-1.04h-65.9c-11.48,0-20.72-9.24-20.72-20.72v-22.07c0-11.48,9.24-20.72,20.72-20.72h65.9c11.33,0,20.72,9.24,20.72,20.72v8.2Z"/>
  <path class="cls-1" d="M1046.87,124.11v19.68h-43.68v87.66h-19.83v-87.66h-43.83v-19.68h107.34Z"/>
  <path class="cls-1" d="M1144.38,124.11c11.33,0,20.72,9.24,20.72,20.72v65.9c0,11.48-9.39,20.72-20.72,20.72h-65.9c-11.48,0-20.72-9.24-20.72-20.72v-65.9c0-11.48,9.24-20.72,20.72-20.72h65.9ZM1144.38,211.77c.45,0,.89-.45.89-1.04v-65.9c0-.6-.45-1.04-.89-1.04h-65.9c-.6,0-1.04.45-1.04,1.04v65.9c0,.6.45,1.04,1.04,1.04h65.9Z"/>
  <path class="cls-1" d="M1269.02,124.11h19.83v107.34h-21.47l-66.19-78.72v78.72h-19.68v-107.34h21.47l66.04,78.72v-78.72Z"/>
  <path class="cls-1" d="M1404.54,143.79h-78.87v24.15h63.51v19.68h-63.51v24.15h78.87v19.68h-98.7v-107.34h98.7v19.68Z"/>
  <g>
    <path class="cls-1" d="M291.48,248.52c2.46,0,4.45,1.98,4.45,4.45v20.19h-3.7v-8.62h-17.25v8.62h-3.7v-20.19c0-2.46,1.98-4.45,4.45-4.45h15.74ZM292.23,260.84v-7.87c0-.41-.34-.75-.75-.75h-15.74c-.41,0-.75.34-.75.75v7.87h17.25Z"/>
    <path class="cls-1" d="M323.27,269.47v3.7h-15.74c-2.46,0-4.45-1.98-4.45-4.45v-10.95c0-2.46,1.99-4.45,4.45-4.45h15.68v3.7h-15.68c-.41,0-.75.34-.75.75v10.95c0,.41.34.75.75.75h15.74Z"/>
    <path class="cls-1" d="M350.49,269.47v3.7h-15.74c-2.46,0-4.45-1.98-4.45-4.45v-10.95c0-2.46,1.99-4.45,4.45-4.45h15.68v3.7h-15.68c-.41,0-.75.34-.75.75v10.95c0,.41.34.75.75.75h15.74Z"/>
    <path class="cls-1" d="M377.18,257.76v7.32h-16.5v3.63c0,.41.34.75.75.75h15.74v3.7h-15.74c-2.46,0-4.45-1.98-4.45-4.45v-10.95c0-2.46,1.99-4.45,4.45-4.45h11.29c2.46,0,4.45,1.98,4.45,4.45ZM373.49,261.39v-3.63c0-.41-.34-.75-.75-.75h-11.29c-.41,0-.75.34-.75.75v3.63h12.8Z"/>
    <path class="cls-1" d="M383.96,246.81h3.7v21.9c0,.41.34.75.75.75h3.7v3.7h-3.7c-2.46,0-4.45-1.98-4.45-4.45v-21.9Z"/>
    <path class="cls-1" d="M417.88,257.76v7.32h-16.5v3.63c0,.41.34.75.75.75h15.74v3.7h-15.74c-2.46,0-4.45-1.98-4.45-4.45v-10.95c0-2.46,1.99-4.45,4.45-4.45h11.29c2.46,0,4.45,1.98,4.45,4.45ZM414.18,261.39v-3.63c0-.41-.34-.75-.75-.75h-11.29c-.41,0-.75.34-.75.75v3.63h12.8Z"/>
    <path class="cls-1" d="M439.68,253.31v3.7h-11.09c-.41,0-.75.34-.75.75v15.4h-3.7v-15.4c0-2.46,1.99-4.45,4.45-4.45h11.09Z"/>
    <path class="cls-1" d="M465.45,257.76v15.4h-15.74c-2.46,0-4.45-1.98-4.45-4.45v-7.32h16.5v-3.63c0-.41-.34-.75-.75-.75h-15.74v-3.7h15.74c2.46,0,4.45,1.98,4.45,4.45ZM461.76,265.09h-12.8v3.63c0,.41.34.75.75.75h12.05v-4.38Z"/>
    <path class="cls-1" d="M476.17,257.01v11.71c0,.41.34.75.75.75h7.39v3.7h-7.39c-2.46,0-4.45-1.98-4.45-4.45v-21.9h3.7v6.5h8.15v3.7h-8.15Z"/>
    <path class="cls-1" d="M493.59,246.81v3.7h-3.7v-3.7h3.7ZM489.89,253.31h3.7v19.85h-3.7v-19.85Z"/>
    <path class="cls-1" d="M520.18,257.76v15.4h-3.7v-15.4c0-.41-.34-.75-.75-.75h-11.29c-.41,0-.75.34-.75.75v15.4h-3.7v-19.85h15.74c2.46,0,4.45,1.98,4.45,4.45Z"/>
    <path class="cls-1" d="M546.98,265.64v10.95c0,2.46-1.99,4.45-4.45,4.45h-12.25v-3.7h12.25c.41,0,.75-.34.75-.75v-3.42h-12.05c-2.46,0-4.45-1.98-4.45-4.45v-10.95c0-2.46,1.99-4.45,4.45-4.45h11.29c2.46,0,4.45,1.98,4.45,4.45v7.87ZM542.53,269.47c.41,0,.75-.34.75-.75v-10.95c0-.41-.34-.75-.75-.75h-11.29c-.41,0-.75.34-.75.75v10.95c0,.41.34.75.75.75h11.29Z"/>
    <path class="cls-1" d="M567.48,248.52h3.7v24.64h-3.7v-24.64Z"/>
    <path class="cls-1" d="M598.53,257.76v15.4h-3.7v-15.4c0-.41-.34-.75-.75-.75h-11.29c-.41,0-.75.34-.75.75v15.4h-3.7v-19.85h15.74c2.46,0,4.45,1.98,4.45,4.45Z"/>
    <path class="cls-1" d="M625.77,257.76v15.4h-3.7v-15.4c0-.41-.34-.75-.75-.75h-11.29c-.41,0-.75.34-.75.75v15.4h-3.7v-19.85h15.74c2.46,0,4.45,1.98,4.45,4.45Z"/>
    <path class="cls-1" d="M648.12,253.31c2.46,0,4.45,1.98,4.45,4.45v10.95c0,2.46-1.99,4.45-4.45,4.45h-11.29c-2.46,0-4.45-1.98-4.45-4.45v-10.95c0-2.46,1.99-4.45,4.45-4.45h11.29ZM636.83,257.01c-.41,0-.75.34-.75.75v10.95c0,.41.34.75.75.75h11.29c.41,0,.75-.34.75-.75v-10.95c0-.41-.34-.75-.75-.75h-11.29Z"/>
    <path class="cls-1" d="M682.86,253.31l-10.95,19.85h-3.7l-10.95-19.85h4.28l8.52,15.68,8.56-15.68h4.24Z"/>
    <path class="cls-1" d="M708.98,257.76v15.4h-15.74c-2.46,0-4.45-1.98-4.45-4.45v-7.32h16.5v-3.63c0-.41-.34-.75-.75-.75h-15.74v-3.7h15.74c2.46,0,4.45,1.98,4.45,4.45ZM705.28,265.09h-12.8v3.63c0,.41.34.75.75.75h12.05v-4.38Z"/>
    <path class="cls-1" d="M719.69,257.01v11.71c0,.41.34.75.75.75h7.39v3.7h-7.39c-2.46,0-4.45-1.98-4.45-4.45v-21.9h3.7v6.5h8.15v3.7h-8.15Z"/>
    <path class="cls-1" d="M737.11,246.81v3.7h-3.7v-3.7h3.7ZM733.41,253.31h3.7v19.85h-3.7v-19.85Z"/>
    <path class="cls-1" d="M759.67,253.31c2.46,0,4.45,1.98,4.45,4.45v10.95c0,2.46-1.99,4.45-4.45,4.45h-11.29c-2.46,0-4.45-1.98-4.45-4.45v-10.95c0-2.46,1.99-4.45,4.45-4.45h11.29ZM748.37,257.01c-.41,0-.75.34-.75.75v10.95c0,.41.34.75.75.75h11.29c.41,0,.75-.34.75-.75v-10.95c0-.41-.34-.75-.75-.75h-11.29Z"/>
    <path class="cls-1" d="M790.81,257.76v15.4h-3.7v-15.4c0-.41-.34-.75-.75-.75h-11.29c-.41,0-.75.34-.75.75v15.4h-3.7v-19.85h15.74c2.46,0,4.45,1.98,4.45,4.45Z"/>
    <path class="cls-1" d="M834.69,248.52v3.7h-10.47v20.95h-3.7v-20.95h-10.47v-3.7h24.64Z"/>
    <path class="cls-1" d="M860.8,257.76v15.4h-3.7v-15.4c0-.41-.34-.75-.75-.75h-11.29c-.41,0-.75.34-.75.75v15.4h-3.7v-26.35h3.7v6.5h12.05c2.43,0,4.45,1.98,4.45,4.45Z"/>
    <path class="cls-1" d="M882.37,253.31v3.7h-11.09c-.41,0-.75.34-.75.75v15.4h-3.7v-15.4c0-2.46,1.99-4.45,4.45-4.45h11.09Z"/>
    <path class="cls-1" d="M903.49,253.31c2.46,0,4.45,1.98,4.45,4.45v10.95c0,2.46-1.99,4.45-4.45,4.45h-11.29c-2.46,0-4.45-1.98-4.45-4.45v-10.95c0-2.46,1.99-4.45,4.45-4.45h11.29ZM892.19,257.01c-.41,0-.75.34-.75.75v10.95c0,.41.34.75.75.75h11.29c.41,0,.75-.34.75-.75v-10.95c0-.41-.34-.75-.75-.75h-11.29Z"/>
    <path class="cls-1" d="M934.6,253.31v15.4c0,2.46-1.99,4.45-4.45,4.45h-11.29c-2.46,0-4.45-1.98-4.45-4.45v-15.4h3.7v15.4c0,.41.34.75.75.75h11.29c.41,0,.75-.34.75-.75v-15.4h3.7Z"/>
    <path class="cls-1" d="M961.4,265.64v10.95c0,2.46-1.99,4.45-4.45,4.45h-12.25v-3.7h12.25c.41,0,.75-.34.75-.75v-3.42h-12.05c-2.46,0-4.45-1.98-4.45-4.45v-10.95c0-2.46,1.99-4.45,4.45-4.45h11.29c2.46,0,4.45,1.98,4.45,4.45v7.87ZM956.95,269.47c.41,0,.75-.34.75-.75v-10.95c0-.41-.34-.75-.75-.75h-11.29c-.41,0-.75.34-.75.75v10.95c0,.41.34.75.75.75h11.29Z"/>
    <path class="cls-1" d="M988.64,257.76v15.4h-3.7v-15.4c0-.41-.34-.75-.75-.75h-11.29c-.41,0-.75.34-.75.75v15.4h-3.7v-26.35h3.7v6.5h12.05c2.43,0,4.45,1.98,4.45,4.45Z"/>
    <path class="cls-1" d="M1028.28,248.52c2.46,0,4.45,1.98,4.45,4.45v15.74c0,2.46-1.98,4.45-4.45,4.45h-15.74c-2.46,0-4.45-1.98-4.45-4.45v-15.74c0-2.46,1.98-4.45,4.45-4.45h15.74ZM1028.28,269.47c.41,0,.75-.34.75-.75v-15.74c0-.41-.34-.75-.75-.75h-15.74c-.41,0-.75.34-.75.75v15.74c0,.41.34.75.75.75h15.74Z"/>
    <path class="cls-1" d="M1063.32,248.52v3.7h-10.47v20.95h-3.7v-20.95h-10.47v-3.7h24.64Z"/>
    <path class="cls-1" d="M1089.58,248.52c2.46,0,4.45,1.98,4.45,4.45v20.19h-3.7v-8.62h-17.25v8.62h-3.7v-20.19c0-2.46,1.98-4.45,4.45-4.45h15.74ZM1090.33,260.84v-7.87c0-.41-.34-.75-.75-.75h-15.74c-.41,0-.75.34-.75.75v7.87h17.25Z"/>
  </g>
</svg>